<svg id="visual" viewBox="0 0 900 600" width="900" height="600" xmlns="http://www.w3.org/2000/svg" xmlns:xlink="http://www.w3.org/1999/xlink" version="1.1"><g stroke-width="1" stroke-linejoin="bevel"><path d="M466 362L427 418L564 433Z" fill="#0c2435" stroke="#0c2435"></path><path d="M427 418L473 498L564 433Z" fill="#081a28" stroke="#081a28"></path><path d="M473 498L588 507L564 433Z" fill="#277297" stroke="#277297"></path><path d="M564 433L519 298L466 362Z" fill="#19435d" stroke="#19435d"></path><path d="M287 434L371 493L427 418Z" fill="#205a7a" stroke="#205a7a"></path><path d="M427 418L371 493L473 498Z" fill="#112e42" stroke="#112e42"></path><path d="M473 498L519 600L588 507Z" fill="#246688" stroke="#246688"></path><path d="M694 360L611 301L564 433Z" fill="#081a28" stroke="#081a28"></path><path d="M564 433L611 301L519 298Z" fill="#15384f" stroke="#15384f"></path><path d="M415 600L519 600L473 498Z" fill="#081a28" stroke="#081a28"></path><path d="M611 301L514 233L519 298Z" fill="#1d4e6b" stroke="#1d4e6b"></path><path d="M519 298L385 263L466 362Z" fill="#15384f" stroke="#15384f"></path><path d="M466 362L312 318L427 418Z" fill="#00101c" stroke="#00101c"></path><path d="M371 493L415 600L473 498Z" fill="#205a7a" stroke="#205a7a"></path><path d="M514 233L385 263L519 298Z" fill="#19435d" stroke="#19435d"></path><path d="M588 507L694 360L564 433Z" fill="#112e42" stroke="#112e42"></path><path d="M312 318L287 434L427 418Z" fill="#246688" stroke="#246688"></path><path d="M371 493L337 600L415 600Z" fill="#081a28" stroke="#081a28"></path><path d="M385 263L312 318L466 362Z" fill="#1d4e6b" stroke="#1d4e6b"></path><path d="M694 360L676 306L611 301Z" fill="#246688" stroke="#246688"></path><path d="M611 301L599 162L514 233Z" fill="#277297" stroke="#277297"></path><path d="M519 600L631 600L588 507Z" fill="#277297" stroke="#277297"></path><path d="M588 507L737 492L694 360Z" fill="#19435d" stroke="#19435d"></path><path d="M262 531L337 600L371 493Z" fill="#1d4e6b" stroke="#1d4e6b"></path><path d="M631 600L664 600L588 507Z" fill="#15384f" stroke="#15384f"></path><path d="M664 600L737 492L588 507Z" fill="#15384f" stroke="#15384f"></path><path d="M514 233L392 194L385 263Z" fill="#205a7a" stroke="#205a7a"></path><path d="M385 263L299 225L312 318Z" fill="#19435d" stroke="#19435d"></path><path d="M207 480L262 531L287 434Z" fill="#0c2435" stroke="#0c2435"></path><path d="M287 434L262 531L371 493Z" fill="#112e42" stroke="#112e42"></path><path d="M392 194L299 225L385 263Z" fill="#19435d" stroke="#19435d"></path><path d="M188 393L207 480L287 434Z" fill="#0c2435" stroke="#0c2435"></path><path d="M668 168L599 162L611 301Z" fill="#19435d" stroke="#19435d"></path><path d="M517 97L380 120L392 194Z" fill="#15384f" stroke="#15384f"></path><path d="M737 492L782 381L694 360Z" fill="#081a28" stroke="#081a28"></path><path d="M694 360L765 236L676 306Z" fill="#297ea6" stroke="#297ea6"></path><path d="M676 306L668 168L611 301Z" fill="#0c2435" stroke="#0c2435"></path><path d="M188 393L287 434L312 318Z" fill="#081a28" stroke="#081a28"></path><path d="M765 236L668 168L676 306Z" fill="#112e42" stroke="#112e42"></path><path d="M168 330L188 393L312 318Z" fill="#277297" stroke="#277297"></path><path d="M664 600L789 529L737 492Z" fill="#15384f" stroke="#15384f"></path><path d="M737 492L789 529L782 381Z" fill="#0c2435" stroke="#0c2435"></path><path d="M392 194L380 120L299 225Z" fill="#297ea6" stroke="#297ea6"></path><path d="M517 97L392 194L514 233Z" fill="#297ea6" stroke="#297ea6"></path><path d="M517 97L514 233L599 162Z" fill="#297ea6" stroke="#297ea6"></path><path d="M617 68L517 97L599 162Z" fill="#19435d" stroke="#19435d"></path><path d="M782 381L765 236L694 360Z" fill="#297ea6" stroke="#297ea6"></path><path d="M139 472L212 600L207 480Z" fill="#15384f" stroke="#15384f"></path><path d="M207 480L212 600L262 531Z" fill="#1d4e6b" stroke="#1d4e6b"></path><path d="M262 531L212 600L337 600Z" fill="#246688" stroke="#246688"></path><path d="M299 225L168 330L312 318Z" fill="#0c2435" stroke="#0c2435"></path><path d="M188 393L139 472L207 480Z" fill="#0c2435" stroke="#0c2435"></path><path d="M178 204L168 330L299 225Z" fill="#277297" stroke="#277297"></path><path d="M766 139L686 132L668 168Z" fill="#1d4e6b" stroke="#1d4e6b"></path><path d="M668 168L686 132L599 162Z" fill="#112e42" stroke="#112e42"></path><path d="M782 381L834 323L765 236Z" fill="#15384f" stroke="#15384f"></path><path d="M765 236L766 139L668 168Z" fill="#00101c" stroke="#00101c"></path><path d="M900 406L834 323L782 381Z" fill="#00101c" stroke="#00101c"></path><path d="M664 600L802 600L789 529Z" fill="#1d4e6b" stroke="#1d4e6b"></path><path d="M900 494L900 406L782 381Z" fill="#246688" stroke="#246688"></path><path d="M114 402L139 472L188 393Z" fill="#277297" stroke="#277297"></path><path d="M686 132L617 68L599 162Z" fill="#112e42" stroke="#112e42"></path><path d="M379 0L312 76L380 120Z" fill="#246688" stroke="#246688"></path><path d="M168 330L114 402L188 393Z" fill="#081a28" stroke="#081a28"></path><path d="M312 76L178 204L299 225Z" fill="#19435d" stroke="#19435d"></path><path d="M168 330L120 307L114 402Z" fill="#0c2435" stroke="#0c2435"></path><path d="M900 223L766 139L765 236Z" fill="#15384f" stroke="#15384f"></path><path d="M720 0L609 0L617 68Z" fill="#112e42" stroke="#112e42"></path><path d="M131 227L120 307L168 330Z" fill="#297ea6" stroke="#297ea6"></path><path d="M484 0L380 120L517 97Z" fill="#205a7a" stroke="#205a7a"></path><path d="M380 120L312 76L299 225Z" fill="#112e42" stroke="#112e42"></path><path d="M900 494L782 381L789 529Z" fill="#112e42" stroke="#112e42"></path><path d="M834 323L900 223L765 236Z" fill="#205a7a" stroke="#205a7a"></path><path d="M900 600L900 494L789 529Z" fill="#297ea6" stroke="#297ea6"></path><path d="M89 86L131 227L178 204Z" fill="#297ea6" stroke="#297ea6"></path><path d="M178 204L131 227L168 330Z" fill="#205a7a" stroke="#205a7a"></path><path d="M900 406L900 297L834 323Z" fill="#15384f" stroke="#15384f"></path><path d="M609 0L517 97L617 68Z" fill="#297ea6" stroke="#297ea6"></path><path d="M609 0L484 0L517 97Z" fill="#0c2435" stroke="#0c2435"></path><path d="M0 467L98 600L139 472Z" fill="#246688" stroke="#246688"></path><path d="M139 472L98 600L212 600Z" fill="#205a7a" stroke="#205a7a"></path><path d="M0 467L139 472L114 402Z" fill="#1d4e6b" stroke="#1d4e6b"></path><path d="M720 0L617 68L686 132Z" fill="#277297" stroke="#277297"></path><path d="M484 0L379 0L380 120Z" fill="#00101c" stroke="#00101c"></path><path d="M312 76L189 74L178 204Z" fill="#205a7a" stroke="#205a7a"></path><path d="M802 600L900 600L789 529Z" fill="#112e42" stroke="#112e42"></path><path d="M900 297L900 223L834 323Z" fill="#1d4e6b" stroke="#1d4e6b"></path><path d="M766 139L720 0L686 132Z" fill="#15384f" stroke="#15384f"></path><path d="M379 0L338 0L312 76Z" fill="#15384f" stroke="#15384f"></path><path d="M212 0L189 74L312 76Z" fill="#297ea6" stroke="#297ea6"></path><path d="M833 0L720 0L766 139Z" fill="#297ea6" stroke="#297ea6"></path><path d="M0 300L0 429L114 402Z" fill="#0c2435" stroke="#0c2435"></path><path d="M0 300L114 402L120 307Z" fill="#19435d" stroke="#19435d"></path><path d="M0 300L120 307L0 223Z" fill="#297ea6" stroke="#297ea6"></path><path d="M0 429L0 467L114 402Z" fill="#1d4e6b" stroke="#1d4e6b"></path><path d="M338 0L212 0L312 76Z" fill="#277297" stroke="#277297"></path><path d="M0 223L120 307L131 227Z" fill="#081a28" stroke="#081a28"></path><path d="M89 86L178 204L189 74Z" fill="#0c2435" stroke="#0c2435"></path><path d="M900 223L900 90L766 139Z" fill="#00101c" stroke="#00101c"></path><path d="M0 467L0 600L98 600Z" fill="#0c2435" stroke="#0c2435"></path><path d="M124 0L89 86L189 74Z" fill="#19435d" stroke="#19435d"></path><path d="M89 86L0 223L131 227Z" fill="#19435d" stroke="#19435d"></path><path d="M900 90L833 0L766 139Z" fill="#19435d" stroke="#19435d"></path><path d="M212 0L124 0L189 74Z" fill="#246688" stroke="#246688"></path><path d="M89 86L0 62L0 223Z" fill="#1d4e6b" stroke="#1d4e6b"></path><path d="M900 90L900 0L833 0Z" fill="#081a28" stroke="#081a28"></path><path d="M0 0L0 62L89 86Z" fill="#297ea6" stroke="#297ea6"></path><path d="M124 0L0 0L89 86Z" fill="#297ea6" stroke="#297ea6"></path></g></svg>