<svg id="visual" viewBox="0 0 9000 5000" width="9000" height="5000" xmlns="http://www.w3.org/2000/svg" xmlns:xlink="http://www.w3.org/1999/xlink" version="1.1"><rect x="0" y="0" width="9000" height="5000" fill="#001220"></rect><path d="M0 2135L150 1855.2C300 1575.3 600 1015.7 900 918.2C1200 820.7 1500 1185.3 1800 1287.7C2100 1390 2400 1230 2700 1279.5C3000 1329 3300 1588 3600 1875.2C3900 2162.3 4200 2477.7 4500 2700.2C4800 2922.7 5100 3052.3 5400 3064C5700 3075.7 6000 2969.3 6300 2807.3C6600 2645.3 6900 2427.7 7200 2224.8C7500 2022 7800 1834 8100 1921.8C8400 2009.7 8700 2373.3 8850 2555.2L9000 2737L9000 5001L8850 5001C8700 5001 8400 5001 8100 5001C7800 5001 7500 5001 7200 5001C6900 5001 6600 5001 6300 5001C6000 5001 5700 5001 5400 5001C5100 5001 4800 5001 4500 5001C4200 5001 3900 5001 3600 5001C3300 5001 3000 5001 2700 5001C2400 5001 2100 5001 1800 5001C1500 5001 1200 5001 900 5001C600 5001 300 5001 150 5001L0 5001Z" fill="#fa7268"></path><path d="M0 860L150 954.7C300 1049.3 600 1238.7 900 1466C1200 1693.3 1500 1958.7 1800 2319.7C2100 2680.7 2400 3137.3 2700 2991.3C3000 2845.3 3300 2096.7 3600 1786.3C3900 1476 4200 1604 4500 1801.8C4800 1999.7 5100 2267.3 5400 2417.5C5700 2567.7 6000 2600.3 6300 2554.7C6600 2509 6900 2385 7200 2140.5C7500 1896 7800 1531 8100 1346.3C8400 1161.7 8700 1157.3 8850 1155.2L9000 1153L9000 5001L8850 5001C8700 5001 8400 5001 8100 5001C7800 5001 7500 5001 7200 5001C6900 5001 6600 5001 6300 5001C6000 5001 5700 5001 5400 5001C5100 5001 4800 5001 4500 5001C4200 5001 3900 5001 3600 5001C3300 5001 3000 5001 2700 5001C2400 5001 2100 5001 1800 5001C1500 5001 1200 5001 900 5001C600 5001 300 5001 150 5001L0 5001Z" fill="#f66a67"></path><path d="M0 2097L150 1951.2C300 1805.3 600 1513.7 900 1529.5C1200 1545.3 1500 1868.7 1800 2015.2C2100 2161.7 2400 2131.3 2700 2382.7C3000 2634 3300 3167 3600 3194.8C3900 3222.7 4200 2745.3 4500 2564.2C4800 2383 5100 2498 5400 2402.8C5700 2307.7 6000 2002.3 6300 1913.5C6600 1824.7 6900 1952.3 7200 1882.8C7500 1813.3 7800 1546.7 8100 1589.8C8400 1633 8700 1986 8850 2162.5L9000 2339L9000 5001L8850 5001C8700 5001 8400 5001 8100 5001C7800 5001 7500 5001 7200 5001C6900 5001 6600 5001 6300 5001C6000 5001 5700 5001 5400 5001C5100 5001 4800 5001 4500 5001C4200 5001 3900 5001 3600 5001C3300 5001 3000 5001 2700 5001C2400 5001 2100 5001 1800 5001C1500 5001 1200 5001 900 5001C600 5001 300 5001 150 5001L0 5001Z" fill="#f16367"></path><path d="M0 3481L150 3433.5C300 3386 600 3291 900 3055.7C1200 2820.3 1500 2444.7 1800 2432.7C2100 2420.7 2400 2772.3 2700 2737.5C3000 2702.7 3300 2281.3 3600 2095.2C3900 1909 4200 1958 4500 1985.3C4800 2012.7 5100 2018.3 5400 2358.2C5700 2698 6000 3372 6300 3476.3C6600 3580.7 6900 3115.3 7200 2781.5C7500 2447.7 7800 2245.3 8100 2216.8C8400 2188.3 8700 2333.7 8850 2406.3L9000 2479L9000 5001L8850 5001C8700 5001 8400 5001 8100 5001C7800 5001 7500 5001 7200 5001C6900 5001 6600 5001 6300 5001C6000 5001 5700 5001 5400 5001C5100 5001 4800 5001 4500 5001C4200 5001 3900 5001 3600 5001C3300 5001 3000 5001 2700 5001C2400 5001 2100 5001 1800 5001C1500 5001 1200 5001 900 5001C600 5001 300 5001 150 5001L0 5001Z" fill="#ed5b67"></path><path d="M0 4100L150 4038.2C300 3976.3 600 3852.7 900 3729.8C1200 3607 1500 3485 1800 3268.3C2100 3051.7 2400 2740.3 2700 2747.3C3000 2754.3 3300 3079.7 3600 3324.3C3900 3569 4200 3733 4500 3655.8C4800 3578.7 5100 3260.3 5400 3208.3C5700 3156.3 6000 3370.7 6300 3338.5C6600 3306.3 6900 3027.7 7200 2967.8C7500 2908 7800 3067 8100 3019.3C8400 2971.7 8700 2717.3 8850 2590.2L9000 2463L9000 5001L8850 5001C8700 5001 8400 5001 8100 5001C7800 5001 7500 5001 7200 5001C6900 5001 6600 5001 6300 5001C6000 5001 5700 5001 5400 5001C5100 5001 4800 5001 4500 5001C4200 5001 3900 5001 3600 5001C3300 5001 3000 5001 2700 5001C2400 5001 2100 5001 1800 5001C1500 5001 1200 5001 900 5001C600 5001 300 5001 150 5001L0 5001Z" fill="#e85467"></path><path d="M0 4070L150 3810C300 3550 600 3030 900 2821.5C1200 2613 1500 2716 1800 2929.8C2100 3143.7 2400 3468.3 2700 3716C3000 3963.7 3300 4134.3 3600 3920.5C3900 3706.7 4200 3108.3 4500 2784.2C4800 2460 5100 2410 5400 2392.7C5700 2375.3 6000 2390.7 6300 2477.7C6600 2564.7 6900 2723.3 7200 2960.2C7500 3197 7800 3512 8100 3428.2C8400 3344.3 8700 2861.7 8850 2620.3L9000 2379L9000 5001L8850 5001C8700 5001 8400 5001 8100 5001C7800 5001 7500 5001 7200 5001C6900 5001 6600 5001 6300 5001C6000 5001 5700 5001 5400 5001C5100 5001 4800 5001 4500 5001C4200 5001 3900 5001 3600 5001C3300 5001 3000 5001 2700 5001C2400 5001 2100 5001 1800 5001C1500 5001 1200 5001 900 5001C600 5001 300 5001 150 5001L0 5001Z" fill="#e34c67"></path><path d="M0 3404L150 3384.8C300 3365.7 600 3327.3 900 3277.7C1200 3228 1500 3167 1800 3209.2C2100 3251.3 2400 3396.7 2700 3610.5C3000 3824.3 3300 4106.7 3600 4152.7C3900 4198.7 4200 4008.3 4500 3999.3C4800 3990.3 5100 4162.7 5400 4042.7C5700 3922.7 6000 3510.3 6300 3368.2C6600 3226 6900 3354 7200 3361.8C7500 3369.7 7800 3257.3 8100 3205.8C8400 3154.3 8700 3163.7 8850 3168.3L9000 3173L9000 5001L8850 5001C8700 5001 8400 5001 8100 5001C7800 5001 7500 5001 7200 5001C6900 5001 6600 5001 6300 5001C6000 5001 5700 5001 5400 5001C5100 5001 4800 5001 4500 5001C4200 5001 3900 5001 3600 5001C3300 5001 3000 5001 2700 5001C2400 5001 2100 5001 1800 5001C1500 5001 1200 5001 900 5001C600 5001 300 5001 150 5001L0 5001Z" fill="#de4467"></path><path d="M0 4094L150 4132.8C300 4171.7 600 4249.3 900 4186C1200 4122.7 1500 3918.3 1800 3723.2C2100 3528 2400 3342 2700 3290C3000 3238 3300 3320 3600 3311.2C3900 3302.3 4200 3202.7 4500 3242.5C4800 3282.3 5100 3461.7 5400 3499.3C5700 3537 6000 3433 6300 3344.5C6600 3256 6900 3183 7200 3302.2C7500 3421.3 7800 3732.7 8100 3774.3C8400 3816 8700 3588 8850 3474L9000 3360L9000 5001L8850 5001C8700 5001 8400 5001 8100 5001C7800 5001 7500 5001 7200 5001C6900 5001 6600 5001 6300 5001C6000 5001 5700 5001 5400 5001C5100 5001 4800 5001 4500 5001C4200 5001 3900 5001 3600 5001C3300 5001 3000 5001 2700 5001C2400 5001 2100 5001 1800 5001C1500 5001 1200 5001 900 5001C600 5001 300 5001 150 5001L0 5001Z" fill="#d83c67"></path><path d="M0 3985L150 4051.2C300 4117.3 600 4249.7 900 4166C1200 4082.3 1500 3782.7 1800 3789.3C2100 3796 2400 4109 2700 4276.2C3000 4443.3 3300 4464.7 3600 4308.7C3900 4152.7 4200 3819.3 4500 3747.5C4800 3675.7 5100 3865.3 5400 3998.2C5700 4131 6000 4207 6300 4296.7C6600 4386.3 6900 4489.7 7200 4380.2C7500 4270.7 7800 3948.3 8100 3804C8400 3659.7 8700 3693.3 8850 3710.2L9000 3727L9000 5001L8850 5001C8700 5001 8400 5001 8100 5001C7800 5001 7500 5001 7200 5001C6900 5001 6600 5001 6300 5001C6000 5001 5700 5001 5400 5001C5100 5001 4800 5001 4500 5001C4200 5001 3900 5001 3600 5001C3300 5001 3000 5001 2700 5001C2400 5001 2100 5001 1800 5001C1500 5001 1200 5001 900 5001C600 5001 300 5001 150 5001L0 5001Z" fill="#d23467"></path><path d="M0 4057L150 4106.3C300 4155.7 600 4254.3 900 4361.7C1200 4469 1500 4585 1800 4554.7C2100 4524.3 2400 4347.7 2700 4315.7C3000 4283.7 3300 4396.3 3600 4361.3C3900 4326.3 4200 4143.7 4500 4182.2C4800 4220.7 5100 4480.3 5400 4584.5C5700 4688.7 6000 4637.3 6300 4642C6600 4646.7 6900 4707.3 7200 4701.7C7500 4696 7800 4624 8100 4521C8400 4418 8700 4284 8850 4217L9000 4150L9000 5001L8850 5001C8700 5001 8400 5001 8100 5001C7800 5001 7500 5001 7200 5001C6900 5001 6600 5001 6300 5001C6000 5001 5700 5001 5400 5001C5100 5001 4800 5001 4500 5001C4200 5001 3900 5001 3600 5001C3300 5001 3000 5001 2700 5001C2400 5001 2100 5001 1800 5001C1500 5001 1200 5001 900 5001C600 5001 300 5001 150 5001L0 5001Z" fill="#cc2c68"></path><path d="M0 4728L150 4694.8C300 4661.7 600 4595.3 900 4525.3C1200 4455.3 1500 4381.7 1800 4358.5C2100 4335.3 2400 4362.7 2700 4451.5C3000 4540.3 3300 4690.7 3600 4709.7C3900 4728.7 4200 4616.3 4500 4535.5C4800 4454.7 5100 4405.3 5400 4450.8C5700 4496.3 6000 4636.7 6300 4643C6600 4649.3 6900 4521.7 7200 4491.5C7500 4461.3 7800 4528.7 8100 4599.8C8400 4671 8700 4746 8850 4783.5L9000 4821L9000 5001L8850 5001C8700 5001 8400 5001 8100 5001C7800 5001 7500 5001 7200 5001C6900 5001 6600 5001 6300 5001C6000 5001 5700 5001 5400 5001C5100 5001 4800 5001 4500 5001C4200 5001 3900 5001 3600 5001C3300 5001 3000 5001 2700 5001C2400 5001 2100 5001 1800 5001C1500 5001 1200 5001 900 5001C600 5001 300 5001 150 5001L0 5001Z" fill="#c62368"></path></svg>